<svg width="649" height="556" viewBox="0 0 649 556" fill="none" xmlns="http://www.w3.org/2000/svg">
<path d="M156.72 74.3143C93.8497 126.758 28.0269 213.435 21.6123 297.381C6.66915 493.389 268.758 574.713 422.599 550.421C520.349 534.979 614.309 468.478 640.004 372.951C656.733 310.82 643.393 243.262 613.835 186.121C519.62 4.0619 321.788 -63.3498 156.72 74.3143Z" stroke="#FF4C13" stroke-width="2" stroke-miterlimit="10"/>
<path d="M59.8095 238.242L60.1375 215.152C60.3562 200.148 44.2103 190.497 31.0895 197.817L10.898 209.07C-2.22284 216.391 -2.51441 235.146 10.3877 242.867L30.2147 254.703C43.1898 262.424 59.5908 253.283 59.8095 238.242Z" fill="#000F57"/>
<path d="M553.286 520.894L553.614 497.805C553.832 482.8 537.687 473.149 524.566 480.469L504.374 491.723C491.253 499.043 490.962 517.799 503.864 525.519L523.691 537.356C536.666 545.077 553.067 535.935 553.286 520.894Z" fill="#000F57"/>
</svg>
